HIERARCHY
ROOT root
{
	OFFSET 0.000000 0.000000 0.000000
	CHANNELS 6 Xposition Yposition Zposition Zrotation Yrotation Xrotation
	JOINT lhip
	{
		OFFSET 0.058581 -0.082280 -0.017664
		CHANNELS 3 Zrotation Yrotation Xrotation
		JOINT lknee
		{
			OFFSET 0.043451 -0.386469 0.008037
			CHANNELS 3 Zrotation Yrotation Xrotation
			JOINT lankle
			{
				OFFSET -0.014790 -0.426874 -0.037428
				CHANNELS 3 Zrotation Yrotation Xrotation
				JOINT ltoe
				{
					OFFSET 0.041054 -0.060286 0.122042
					CHANNELS 3 Zrotation Yrotation Xrotation
					End Site
					{
						OFFSET 0.000000 0.000000 0.000000
					}
				}
			}
		}
	}
	JOINT rhip
	{
		OFFSET -0.060310 -0.090513 -0.013543
		CHANNELS 3 Zrotation Yrotation Xrotation
		JOINT rknee
		{
			OFFSET -0.043257 -0.383688 -0.004843
			CHANNELS 3 Zrotation Yrotation Xrotation
			JOINT rankle
			{
				OFFSET 0.019056 -0.420046 -0.034562
				CHANNELS 3 Zrotation Yrotation Xrotation
				JOINT rtoe
				{
					OFFSET -0.034840 -0.062106 0.130323
					CHANNELS 3 Zrotation Yrotation Xrotation
					End Site
					{
						OFFSET 0.000000 0.000000 0.000000
					}
				}
			}
		}
	}
	JOINT lowerback
	{
		OFFSET 0.004439 0.124404 -0.038385
		CHANNELS 3 Zrotation Yrotation Xrotation
		JOINT upperback
		{
			OFFSET 0.004488 0.137956 0.026820
			CHANNELS 3 Zrotation Yrotation Xrotation
			JOINT chest
			{
				OFFSET -0.002265 0.056032 0.002855
				CHANNELS 3 Zrotation Yrotation Xrotation
				JOINT lowerneck
				{
					OFFSET -0.013390 0.211636 -0.033468
					CHANNELS 3 Zrotation Yrotation Xrotation
					JOINT upperneck
					{
						OFFSET 0.010113 0.088937 0.050410
						CHANNELS 3 Zrotation Yrotation Xrotation
						End Site
						{
							OFFSET 0.000000 0.000000 0.000000
						}
					}
				}
				JOINT lclavicle
				{
					OFFSET 0.071702 0.114000 -0.018898
					CHANNELS 3 Zrotation Yrotation Xrotation
					JOINT lshoulder
					{
						OFFSET 0.122921 0.045205 -0.019046
						CHANNELS 3 Zrotation Yrotation Xrotation
						JOINT lelbow
						{
							OFFSET 0.255332 -0.015649 -0.022946
							CHANNELS 3 Zrotation Yrotation Xrotation
							JOINT lwrist
							{
								OFFSET 0.265709 0.012698 -0.007375
								CHANNELS 3 Zrotation Yrotation Xrotation
								End Site
								{
									OFFSET 0.000000 0.000000 0.000000
								}
							}
						}
					}
				}
				JOINT rclavicle
				{
					OFFSET -0.082954 0.112472 -0.023707
					CHANNELS 3 Zrotation Yrotation Xrotation
					JOINT rshoulder
					{
						OFFSET -0.113228 0.046853 -0.008472
						CHANNELS 3 Zrotation Yrotation Xrotation
						JOINT relbow
						{
							OFFSET -0.260127 -0.014369 -0.031269
							CHANNELS 3 Zrotation Yrotation Xrotation
							JOINT rwrist
							{
								OFFSET -0.269108 0.006794 -0.006027
								CHANNELS 3 Zrotation Yrotation Xrotation
								End Site
								{
									OFFSET 0.000000 0.000000 0.000000
								}
							}
						}
					}
				}
			}
		}
	}
}
MOTION
Frames: 11
Frame Time: 0.033333
-0.244497 0.255970 1.248399 -14.031561 6.576078 87.374409 2.310175 3.027679 -3.176677 -5.509909 -11.615303 15.079517 2.550102 8.326315 -6.971168 0.000000 -0.000000 0.000000 0.684760 1.728341 -48.297845 3.850933 -14.446860 80.080541 -0.863739 0.622032 -32.284776 0.000000 -0.000000 0.000000 -1.376286 -5.862586 30.861341 2.938554 3.107037 -3.613510 -0.111049 -1.884437 3.941047 5.049531 11.954784 4.197121 -6.054983 -1.986140 24.124277 -28.775970 9.830866 -2.039549 -53.994407 -2.271209 8.166522 22.707788 -56.844259 -12.353200 10.247387 -7.403196 -10.004650 32.499357 -2.335082 0.176095 52.060998 5.957917 12.561865 -18.772562 50.483954 -8.191499 -6.380917 10.500039 2.132789 
-0.251109 0.242508 1.252595 -12.777425 6.655353 86.483295 2.798390 3.335509 -0.867814 -5.476614 -13.254362 14.237138 1.260629 8.040867 -6.091194 0.000000 -0.000000 0.000000 0.528522 2.298374 -48.480798 5.030305 -14.311818 73.966948 -0.157410 2.022241 -32.039491 0.000000 -0.000000 0.000000 -1.522340 -6.448147 31.641926 2.978667 3.063752 -3.411460 0.058731 -1.965719 3.902844 5.310606 12.382209 4.543889 -6.180247 -2.497479 24.318657 -28.701118 10.239569 -2.265635 -54.157807 -2.377132 8.540111 22.566353 -56.901755 -12.484525 10.122968 -7.908099 -9.835433 32.776060 -2.574327 -0.199301 51.520084 5.824044 12.710472 -18.068309 50.706911 -7.391388 -6.425498 10.703691 2.815178 
-0.257285 0.228915 1.253930 -11.288593 6.416380 85.700515 2.990769 3.387732 0.659040 -5.751105 -14.712768 14.749096 0.376368 7.636905 -6.027339 0.000000 -0.000000 0.000000 0.106292 2.755238 -47.626698 4.844237 -14.136696 68.984441 0.517689 2.223050 -30.476933 0.000000 -0.000000 0.000000 -1.676442 -6.836369 32.107220 2.973255 2.771608 -3.212730 0.221871 -2.196132 3.981471 5.251345 12.385394 5.241596 -6.105257 -2.333406 23.916887 -28.670974 10.209278 -1.922508 -54.013989 -2.431742 8.643967 22.341538 -57.002748 -12.310262 10.090886 -7.933403 -10.085131 32.768200 -2.665833 -0.301680 51.419567 5.764280 12.834719 -17.733555 50.620018 -7.053704 -6.459491 10.699336 2.812719 
-0.263559 0.214993 1.252394 -10.066789 6.146774 85.012992 2.940811 3.056642 1.899284 -5.878376 -15.846617 15.780394 0.055429 7.548283 -6.778405 0.000000 -0.000000 0.000000 -0.137435 3.737550 -46.245588 5.526738 -13.595106 65.705617 1.628933 2.724545 -27.013013 0.000000 -0.000000 0.000000 -1.791334 -6.991483 32.070593 3.019352 2.732219 -2.747087 0.274948 -2.377247 4.105741 5.263547 12.414129 5.601205 -6.097749 -2.004089 23.960363 -28.625889 10.068385 -1.637773 -54.166541 -2.702813 8.846341 22.106043 -56.603270 -12.204388 9.877387 -8.211939 -9.641027 32.760154 -2.872096 -0.515818 51.445857 5.701359 13.176617 -17.704151 50.271102 -7.005696 -6.414428 10.584735 2.878200 
-0.270234 0.200362 1.249380 -8.624522 5.854785 84.785024 3.075133 2.666510 2.613975 -6.524496 -16.856786 16.900278 0.349146 7.336900 -7.544778 0.000000 -0.000000 0.000000 -0.093016 4.500131 -44.918824 5.872567 -13.331002 64.953769 -1.147264 0.632073 -25.519465 0.000000 -0.000000 0.000000 -1.871731 -7.177852 31.516099 3.202220 2.578103 -2.387091 0.341898 -2.542328 4.097082 5.088256 11.751598 6.118307 -6.023954 -1.435046 24.051679 -28.738360 10.028058 -1.416282 -54.113806 -2.572810 9.042322 21.521178 -56.314208 -11.402209 10.166660 -7.873882 -9.775088 32.658659 -2.984047 -0.478947 51.425867 5.370434 13.490818 -17.468840 49.822489 -6.469167 -6.236766 10.403124 2.405247 
-0.275658 0.186821 1.247984 -7.252104 5.578210 84.647326 3.337274 2.573465 3.160755 -7.090084 -17.858352 18.080833 -0.389711 6.410947 -8.347717 0.000000 -0.000000 0.000000 0.207742 4.805465 -43.464410 4.546398 -14.019534 66.053236 -2.676811 -0.196949 -27.382313 0.000000 -0.000000 0.000000 -1.642379 -7.436533 31.556452 3.176458 2.407724 -2.686017 0.359015 -2.620938 4.131732 5.112012 11.672343 6.217182 -6.344898 -1.278325 24.439098 -28.907912 10.174697 -1.530692 -54.617687 -2.359355 8.790552 21.318117 -55.563796 -10.542963 9.481058 -8.080459 -10.165645 32.625913 -3.031920 -0.474567 51.393004 5.073108 13.134207 -16.919673 49.255203 -5.080905 -5.901484 10.710164 2.981705 
-0.282894 0.173934 1.248411 -6.150456 5.543194 84.963466 4.119895 2.231828 3.649526 -7.471532 -18.664220 18.096897 -1.216001 5.503551 -7.819224 0.000000 -0.000000 0.000000 0.951809 5.477922 -42.612043 3.799490 -13.936860 65.658631 -3.734025 -2.830456 -28.332203 0.000000 -0.000000 0.000000 -1.312667 -7.581639 30.902923 3.310546 2.576182 -2.252139 0.300819 -2.643331 3.838905 4.800817 11.343377 6.047654 -6.464665 -1.083210 24.592233 -29.320344 10.329264 -1.241325 -54.779853 -2.417153 8.606282 21.308215 -54.723586 -10.200457 9.335079 -7.444390 -9.888890 33.003477 -3.043412 -0.345549 51.051568 4.811949 13.117158 -16.740285 48.527393 -4.669151 -5.714959 10.517961 3.111918 
-0.288281 0.161070 1.252862 -5.122369 4.762490 85.520072 3.659341 2.084003 4.305927 -7.095203 -19.390631 16.956303 -2.082401 4.846217 -6.103672 0.000000 -0.000000 0.000000 1.130625 5.499743 -42.218643 3.659893 -12.951351 65.694786 -4.242803 -4.760304 -28.787042 0.000000 -0.000000 0.000000 -1.561321 -7.691791 30.349840 3.248436 2.666418 -2.049806 0.375181 -2.752802 3.637196 3.996660 11.213419 5.480184 -6.468587 -0.334050 24.817190 -29.731793 10.503759 -1.244542 -55.235211 -2.298152 8.520889 21.649765 -53.441823 -10.734463 9.761462 -7.270129 -11.107991 32.994454 -2.707579 -0.303717 51.239931 4.625914 13.470126 -16.915762 47.099866 -5.072693 -5.780862 10.525716 3.185757 
-0.294703 0.147975 1.262100 -3.787384 4.320657 86.206465 3.771452 1.915830 5.254828 -6.184672 -19.200366 14.396797 -4.120458 4.088959 -2.559974 0.000000 -0.000000 0.000000 1.280361 5.954082 -40.605241 2.753963 -12.750205 63.777087 -4.552647 -5.484763 -29.673023 0.000000 -0.000000 0.000000 -1.191385 -7.833367 29.465599 3.208337 2.539229 -1.455905 0.361934 -2.871875 3.127971 3.463216 11.261024 5.755506 -6.578541 0.211516 24.703285 -30.016252 10.117811 -1.022851 -55.574641 -1.786285 8.429295 21.718396 -51.802710 -11.443666 9.133334 -7.207693 -10.927301 32.799333 -2.150098 0.000496 51.814965 4.284686 13.487844 -17.297239 45.380099 -6.014776 -5.827988 10.243075 3.430169 
-0.301945 0.134869 1.275178 -2.642653 4.017489 86.866518 4.572580 2.569195 5.763398 -5.626654 -18.291404 11.917871 -7.619171 2.738542 3.206867 0.000000 -0.000000 0.000000 1.916579 6.625104 -38.434866 2.050495 -12.318402 60.764436 -5.164632 -6.712717 -29.790288 0.000000 -0.000000 0.000000 -1.020350 -7.970334 28.455884 3.303114 2.544921 -1.052134 0.522457 -2.722554 2.857484 2.643870 11.405344 6.518436 -6.585456 0.748432 24.360195 -30.115441 10.009269 -0.805545 -56.161702 -1.433381 8.201927 21.076021 -49.991300 -10.465356 8.712531 -7.199790 -10.790522 32.413071 -2.093332 0.620528 52.513181 4.469240 12.975331 -16.920877 43.599363 -5.504914 -5.937398 9.852880 3.311326 
-0.308153 0.121783 1.290389 -1.657697 3.601074 87.159265 5.342809 4.250269 5.578565 -5.300419 -17.343879 10.695156 -12.281733 1.494458 10.828193 0.000000 -0.000000 0.000000 2.445789 6.712275 -36.163992 1.119663 -11.941522 57.969511 -5.424007 -6.597253 -29.196766 0.000000 -0.000000 0.000000 -0.692362 -7.798149 28.084123 3.110816 2.721454 -1.117099 0.487045 -2.416709 2.257339 2.263371 10.755050 7.637101 -6.225663 0.568456 23.840745 -29.892682 9.639305 -0.081164 -56.395847 -0.745354 7.949456 20.456123 -49.181566 -9.453030 9.047084 -7.427368 -10.146557 32.080891 -1.952188 1.497279 52.864815 3.900482 11.883945 -16.153304 42.614896 -4.590451 -5.887446 9.697041 3.051797 
